<?xml version="1.0" encoding="utf-8"?>
<!-- Generator: Adobe Illustrator 21.1.0, SVG Export Plug-In . SVG Version: 6.00 Build 0)  -->
<svg version="1.1" id="Layer_1" xmlns="http://www.w3.org/2000/svg" xmlns:xlink="http://www.w3.org/1999/xlink" x="0px" y="0px"
	 viewBox="0 0 760 194" style="enable-background:new 0 0 760 194;" xml:space="preserve">
<style type="text/css">
	.st0{fill:#FFFFFF;}
</style>
<g>
	<path class="st0" d="M144.8,102.6v70c-6.4,3.7-14.1,6.6-23,8.6c-8.9,2.1-17.9,3.1-27.2,3.1c-13.2,0-25-2.1-35.6-6.2
		c-10.5-4.1-19.5-9.9-27-17.1c-7.5-7.3-13.3-15.9-17.3-25.9s-6-20.9-6-32.7c0-13,2.3-25,7-35.8s11-20.1,19.1-28
		c8.1-7.8,17.3-13.9,27.8-18.3c10.5-4.4,21.7-6.6,33.5-6.6c8,0,16.3,1,25.1,3.1c8.7,2.1,16.3,5,22.8,8.9l-12.2,20.5
		c-2.3-1.4-4.9-2.6-7.9-3.7c-3-1.1-6.1-2-9.3-2.8s-6.4-1.3-9.7-1.7c-3.2-0.4-6.3-0.6-9.2-0.6c-8.1,0-16,1.6-23.5,4.8
		s-14.1,7.7-19.8,13.3c-5.7,5.7-10.2,12.3-13.6,20c-3.4,7.7-5.1,16-5.1,24.9c0,8.1,1.5,15.8,4.5,23s7.2,13.6,12.5,19.1
		c5.4,5.5,11.8,9.9,19.3,13.1s15.8,4.8,24.9,4.8c3.5,0,7.7-0.3,12.5-1c4.8-0.7,9.5-1.9,13.9-3.6V124H88.9v-21.6h55.9V102.6z"/>
	<path class="st0" d="M177.5,125.8c0-8.5,1.6-16.4,4.8-23.9s7.6-14,13.1-19.6s11.9-10.1,19.2-13.4c7.3-3.3,15-5,23.3-5
		c5.5,0,10.6,0.7,15.2,2.1c4.6,1.4,8.6,3.1,11.9,5.1s6,4.1,8,6.4c2,2.2,3.4,4.1,4.1,5.8l1.1-16.3h22.6v115.4h-23.7v-14.6
		c-0.9,1.5-2.4,3.2-4.4,5.2s-4.7,3.9-7.9,5.7c-3.2,1.8-7,3.3-11.5,4.6c-4.4,1.3-9.5,1.9-15.2,1.9c-8.8,0-17-1.6-24.4-4.8
		c-7.5-3.2-13.9-7.5-19.2-13c-5.3-5.4-9.5-11.7-12.6-18.9C179,141.3,177.5,133.8,177.5,125.8z M201.2,124.5c0,5.3,1,10.3,2.9,14.9
		s4.6,8.6,7.9,11.9s7.3,5.9,11.9,7.9c4.6,1.9,9.7,2.9,15.2,2.9s10.6-1,15.3-2.9c4.7-1.9,8.7-4.6,12.1-8s6-7.4,7.9-11.9
		c1.8-4.5,2.8-9.4,2.8-14.8c0-5.3-0.9-10.3-2.8-14.8c-1.8-4.5-4.5-8.4-7.9-11.7s-7.5-5.9-12.1-7.9c-4.7-1.9-9.8-2.9-15.3-2.9
		s-10.6,1-15.2,2.9c-4.6,1.9-8.6,4.6-11.9,7.9s-5.9,7.2-7.9,11.7C202.2,114.2,201.2,119.1,201.2,124.5z"/>
	<path class="st0" d="M347.9,67h20.7c0.4,5.7,0.7,10.9,1,15.6c0.3,4.7,0.6,9.3,1,13.9c4.2-9.9,9.8-17.8,16.7-23.6
		c6.9-5.8,16.2-8.8,27.8-9c11.2,0,20.2,2.9,27.1,8.6c6.8,5.7,10.8,13.2,11.9,22.4c4.6-9.4,10.3-16.8,17-22.4
		c6.7-5.5,15.8-8.4,27.2-8.6c12,0,21.4,3.2,28.3,9.7c6.9,6.4,10.5,14.7,10.9,24.9v83.9h-23.7v-73.2c-0.4-5.9-2.3-10.9-5.9-15
		s-9.4-6.4-17.5-6.8c-11,0-19.7,3.5-26,10.6c-6.3,7.1-9.6,16.2-9.9,27.2v57.2H431v-73.2c-0.4-5.9-2.4-10.9-6.2-15
		c-3.8-4.1-9.5-6.4-17.3-6.8c-5.5,0-10.5,1-14.9,2.9s-8.2,4.6-11.3,7.9c-3.1,3.3-5.5,7.3-7.2,11.9s-2.5,9.7-2.5,15.2v57.2h-23.5V67
		H347.9z"/>
	<path class="st0" d="M680.9,168.9c-5.5,5-12.2,8.9-20.2,11.9c-7.9,2.9-16,4.4-24.3,4.4c-8.5,0-16.4-1.6-23.9-4.8
		c-7.5-3.2-13.9-7.5-19.5-13c-5.5-5.4-9.9-11.8-13.1-19.2c-3.2-7.4-4.8-15.2-4.8-23.5s1.6-16.1,4.8-23.5s7.6-13.8,13.1-19.3
		s11.9-9.9,19.2-13.1c7.3-3.2,15-4.8,23.3-4.8c13.1,0,24.4,3.9,34.1,11.7c9.7,7.8,16.6,18.1,20.8,30.8c-5.7,2-12.2,4.5-19.6,7.5
		c-7.4,2.9-15,6-22.9,9.2s-15.8,6.4-23.7,9.5s-15.3,6-22.1,8.6c3.1,6.3,7.7,11.3,13.7,15c6,3.8,12.7,5.7,20,5.7c5,0,10-0.9,15-2.8
		c5.1-1.8,9.2-4.3,12.3-7.5L680.9,168.9z M661,101c-2.2-4.6-5.7-8.1-10.5-10.4c-4.8-2.3-9.7-3.5-14.6-3.5c-5.3,0-10.3,1-14.8,3
		s-8.4,4.7-11.7,8.1c-3.3,3.4-5.9,7.3-7.9,11.7c-1.9,4.4-2.9,8.9-2.9,13.5c0,0.9,0,1.6,0.1,1.9c0.1,0.4,0.1,0.6,0.1,0.8
		c4.8-1.8,10-3.9,15.6-6.2c5.6-2.3,11.2-4.6,16.7-6.9s10.9-4.5,16-6.6C652.3,104.5,656.9,102.7,661,101z"/>
</g>
<g>
	<path class="st0" d="M716.6,47.9c2.3-4.6,5-9.2,8-13.7s5.7-9.1,8-13.7h-22.1V8.8h40.7c-2.5,4.6-5.2,9.2-8,13.8s-5.4,9.1-8,13.8
		c4.6,2.4,8.3,5.6,11.1,9.7c2.8,4.1,4.2,8.8,4.2,14.1c0,3.5-0.7,6.9-2.1,10.1c-1.4,3.2-3.3,5.9-5.7,8.3c-2.4,2.4-5.2,4.2-8.4,5.6
		c-3.2,1.3-6.6,2-10.1,2c-3.7,0-7.2-0.8-10.5-2.3s-6.2-3.6-8.6-6.1l8.7-8.1c2.7,3.3,6.2,5,10.5,5c1.9,0,3.8-0.4,5.5-1.2
		s3.2-1.8,4.5-3.1s2.3-2.8,3.1-4.5s1.2-3.6,1.2-5.6c0-1.9-0.4-3.8-1.2-5.5s-1.8-3.2-3.1-4.5s-2.8-2.3-4.5-3s-3.6-1.1-5.5-1.1
		C721.4,46.1,718.9,46.7,716.6,47.9z"/>
</g>
</svg>
